<?xml version="1.0" encoding="iso-8859-1"?>
<!-- Uploaded to: SVG Repo, www.svgrepo.com, Generator: SVG Repo Mixer Tools -->
<svg height="800px" width="800px" version="1.1" id="Layer_1" xmlns="http://www.w3.org/2000/svg" xmlns:xlink="http://www.w3.org/1999/xlink" 
	 viewBox="0 0 392.533 392.533" xml:space="preserve">
<path style="fill:#FFFFFF;" d="M277.68,316.509c4.073-1.552,8.727-0.453,11.636,2.715l33.099,34.974V32.711
	c0-6.012-4.848-10.925-10.925-10.925h-21.721V115.2c-0.388,9.244-10.537,14.352-18.036,8.275l-17.519-14.933l-17.519,14.998
	c-6.982,6.4-17.907,0.517-18.036-8.275V21.786H80.961c-6.012,0-10.925,4.848-10.925,10.925v327.111
	c0,6.012,4.848,10.925,10.925,10.925h49.842L277.68,316.509z"/>
<path style="fill:#FFC10D;" d="M289.769,43.572V115.2c-0.388,9.244-10.537,14.352-18.036,8.275l-17.519-14.933l-17.519,14.998
	c-6.982,6.4-17.907,0.517-18.036-8.275V43.572H102.811c-6.012,0-10.925,4.848-10.925,10.925v283.539
	c0,6.012,4.848,10.925,10.925,10.925h87.143l87.725-32.453c4.073-1.552,8.727-0.453,11.636,2.715l11.313,11.895V54.497
	C300.629,48.549,295.716,43.636,289.769,43.572z"/>
<g>
	<path style="fill:#194F82;" d="M178.641,72.921h-62.448c-6.012,0-10.925-4.848-10.925-10.925s4.848-10.925,10.925-10.925h62.448
		c6.012,0,10.925,4.848,10.925,10.925S184.718,72.921,178.641,72.921z"/>
	<path style="fill:#194F82;" d="M178.641,145.325h-62.448c-6.012,0-10.925-4.848-10.925-10.925s4.848-10.925,10.925-10.925h62.448
		c6.012,0,10.925,4.848,10.925,10.925S184.718,145.325,178.641,145.325z"/>
	<path style="fill:#194F82;" d="M276.258,217.794h-160c-6.012,0-10.925-4.848-10.925-10.925c0-6.012,4.848-10.925,10.925-10.925h160
		c6.012,0,10.925,4.848,10.925,10.925S282.205,217.794,276.258,217.794z"/>
	<path style="fill:#194F82;" d="M276.258,290.263h-160c-6.012,0-10.925-4.848-10.925-10.925c0-6.012,4.848-10.925,10.925-10.925h160
		c6.012,0,10.925,4.848,10.925,10.925C287.183,285.349,282.205,290.263,276.258,290.263z"/>
	<path style="fill:#194F82;" d="M344.201,32.711C344.201,14.675,329.526,0,311.49,0H81.025C62.924,0,48.25,14.675,48.25,32.711
		v327.111c0,18.036,14.675,32.711,32.711,32.711h252.315h0.065c6.012,0,10.925-4.848,10.925-10.925
		C344.33,381.349,344.201,32.711,344.201,32.711z M240.573,21.786h27.41v69.754l-6.659-5.624c-4.848-3.556-9.568-3.426-14.158,0
		l-6.659,5.624L240.573,21.786L240.573,21.786z M193.769,370.747l84.687-31.289l29.608,31.289H193.769z M322.415,354.198
		l-33.099-34.974c-3.038-3.168-7.564-4.267-11.636-2.715l-146.812,54.238H81.025c-6.012,0-10.925-4.848-10.925-10.925V32.711
		c0-6.012,4.848-10.925,10.925-10.925h137.762V115.2c0.065,8.857,11.055,14.675,18.036,8.275l17.519-14.998l17.519,14.998
		c7.499,6.077,17.648,1.034,18.036-8.275V21.786h21.721c6.012,0,10.925,4.848,10.925,10.925v321.552h-0.129L322.415,354.198
		L322.415,354.198z"/>
</g>
<g>
	<polygon style="fill:#56ACE0;" points="193.769,370.747 307.999,370.747 278.456,339.459 	"/>
	<path style="fill:#56ACE0;" d="M261.324,85.915l6.659,5.624V21.786h-27.41v69.754l6.659-5.624
		C251.757,82.424,256.476,82.36,261.324,85.915z"/>
</g>
</svg>